<?xml version="1.0" encoding="utf-8"?>
<!-- Generator: Adobe Illustrator 26.3.1, SVG Export Plug-In . SVG Version: 6.00 Build 0)  -->
<svg version="1.1" id="Calque_1" xmlns="http://www.w3.org/2000/svg" xmlns:xlink="http://www.w3.org/1999/xlink" x="0px" y="0px"
	 viewBox="0 0 5330.8 5421.2" style="enable-background:new 0 0 5330.8 5421.2;" xml:space="preserve">
<style type="text/css">
	.st0{fill:#FFFFFF;}
</style>
<g>
	<path class="st0" d="M1561.2,2993c0,215.1,114.1,333.8,323.4,333.8c45.2,0,82-2.5,140.4-10.4v-649.5h0
		c-47.8-15.6-87.3-20.8-137.8-20.8C1680.6,2646.1,1561.2,2772.1,1561.2,2993z"/>
	<path class="st0" d="M2419.2,1033.4c-1013.6,0-1835.3,821.7-1835.3,1835.3S1405.6,4704,2419.2,4704s1835.3-821.7,1835.3-1835.3
		S3432.8,1033.4,2419.2,1033.4z M2638.1,1712.8h408.5v415.1h-408.5V1712.8z M1130.5,2988.9c0-412.5,275.5-680.2,702.4-680.2
		c66.3,0,116.7,5.2,177.7,20.8v-616.7h408.5v1872.4c-209.3,39.6-363.3,55.2-530,55.2C1390.2,3639.9,1130.5,3417,1130.5,2988.9z
		 M3087.3,3296.4c0,322.9-24.2,478.1-95.2,612c-66.3,128.7-153.5,209.8-333.9,299.5l-379.1-178.6
		c180.3-83.8,267.6-157.9,323.4-270.9c58.4-115.6,76.8-249.4,76.8-601.5v-797.9h408v0V3296.4z"/>
</g>
</svg>
