<?xml version="1.0" encoding="UTF-8"?><svg id="Calque_1" xmlns="http://www.w3.org/2000/svg" viewBox="0 0 373.73 421.59"><defs><style>.cls-1{fill:#fff;}.cls-2{fill:none;stroke:#fff;stroke-miterlimit:10;stroke-width:10px;}</style></defs><path class="cls-2" d="M38.47,375.4L5.47,5H368.27l-33,370.2-148.7,41.2-148.1-41Z"/><polygon class="cls-1" points="186.87 126.1 296.27 126.1 300.47 80.7 186.87 80.7 186.67 80.7 72.87 80.7 85.27 217.9 186.67 217.9 186.67 218 242.67 218 237.37 277 186.77 290.57 136.07 277 132.87 240.7 87.27 240.7 93.67 312 186.87 338 186.87 337.74 279.67 312 292.17 172.6 186.87 172.6 186.67 172.6 126.87 172.6 122.67 126.1 186.67 126.1 186.87 126.1"/></svg>