<?xml version="1.0" encoding="UTF-8"?><svg id="Calque_1" xmlns="http://www.w3.org/2000/svg" viewBox="0 0 256 256"><defs><style>.cls-1{fill:#fff;}</style></defs><path class="cls-1" d="M0,0V256H256V0H0ZM139.31,199.67c0,24.92-14.61,36.26-35.92,36.26-19.24,0-30.42-9.97-36.09-21.99h0l19.59-11.86c3.78,6.7,7.22,12.37,15.46,12.37s12.89-3.09,12.89-15.12V117.53h24.06v82.14Zm56.89,36.26c-22.34,0-36.77-10.65-43.82-24.57h0l19.59-11.34c5.16,8.42,11.86,14.61,23.71,14.61,9.97,0,16.32-4.98,16.32-11.86,0-8.25-6.53-11.17-17.53-15.98l-6.01-2.58c-17.36-7.39-28.87-16.67-28.87-36.26,0-18.04,13.75-31.79,35.23-31.79,15.29,0,26.29,5.33,34.2,19.25l-18.73,12.03c-4.12-7.39-8.59-10.31-15.46-10.31s-11.51,4.47-11.51,10.31c0,7.22,4.47,10.14,14.78,14.61l6.01,2.58c20.45,8.76,31.96,17.7,31.96,37.8,0,21.65-17.01,33.51-39.87,33.51Z"/></svg>