<?xml version="1.0" encoding="UTF-8"?><svg id="Calque_1" xmlns="http://www.w3.org/2000/svg" viewBox="0 0 464 421.59"><defs><style>.cls-1{fill:#fff;}</style></defs><path class="cls-1" d="M239.13,206.2c82.62,0,102.24,0,102.24-92.51v-48.69c0-26.89-43.6-48.69-97.38-48.69s-97.38,21.8-97.38,48.69v38.95h97.38v9.74H97.94c-26.89,0-48.69,43.6-48.69,97.38s21.8,97.37,48.69,97.37h38.95c0-102.24,29.93-102.24,102.24-102.24Zm-48.69-123.18c-9.95,0-18.01-8.07-18.01-18.01s8.07-18.01,18.01-18.01,18.01,8.07,18.01,18.01-8.07,18.01-18.01,18.01Z"/><path class="cls-1" d="M390.06,123.7c18.3,0,38.69,35.88,38.69,87.38s-20.39,87.38-38.69,87.38H234v29.74h97.38v28.95c0,18.3-35.88,38.69-87.38,38.69s-87.38-20.39-87.38-38.69v-48.69c0-43.06,4.43-64.28,15.28-73.23,11.24-9.28,33.51-9.28,67.23-9.28,44.04,0,73.14,0,93.3-14.7,19.36-14.12,27.63-39.04,28.59-87.54h29.05m0-10h-38.95c0,102.24-28.21,102.24-111.98,102.24-72.91,0-92.51,0-92.51,92.51v48.69c0,26.89,43.6,48.69,97.38,48.69s97.38-21.8,97.38-48.69v-38.95h-97.38v-9.74h146.06c26.89,0,48.69-43.6,48.69-97.38s-21.8-97.38-48.69-97.38h0Z"/><circle class="cls-1" cx="297.56" cy="357.13" r="18.01"/></svg>